<?xml version="1.0" encoding="UTF-8"?>
<svg version="1.1" xmlns="http://www.w3.org/2000/svg" width="811" height="414">
<path d="M0 0 C17.82 0 35.64 0 54 0 C54 19.47 54 38.94 54 59 C71.16 59 88.32 59 106 59 C106 73.19 106 87.38 106 102 C88.84 102 71.68 102 54 102 C54 125.1 54 148.2 54 172 C36.18 172 18.36 172 0 172 C0 115.24 0 58.48 0 0 Z " fill="#0B5FA3" transform="translate(229,0)"/>
<path d="M0 0 C18.81 0 37.62 0 57 0 C57 56.76 57 113.52 57 172 C54.03 172 51.06 172 48 172 C47.37544922 170.76548096 46.75089844 169.53096191 46.10742188 168.2590332 C43.75726971 163.61732285 41.39970238 158.97941076 39.04003906 154.3425293 C38.02568731 152.34679062 37.01326767 150.35006856 36.00292969 148.35229492 C22.44848506 118.55572962 22.44848506 118.55572962 -2 99 C-3.66666667 98.33333333 -5.33333333 97.66666667 -7 97 C-7 96.34 -7 95.68 -7 95 C-6.18917969 94.78085938 -5.37835938 94.56171875 -4.54296875 94.3359375 C10.72517587 89.96345371 21.34340893 83.58705809 29.67578125 69.8828125 C33.22359579 62.15925165 34.48745314 54.9589754 34.375 46.5 C34.38660156 45.62730469 34.39820313 44.75460938 34.41015625 43.85546875 C34.35500706 31.44690131 29.70914498 19.90708009 21 11 C14.65705928 5.78178692 7.8307618 3.25250339 0 1 C0 0.67 0 0.34 0 0 Z " fill="#EF7F1A" transform="translate(450,0)"/>
<path d="M0 0 C10.52818325 0 15.45535704 0.19951758 23 7 C24.57386061 9.27497042 25.95890562 11.47624365 27.3125 13.875 C27.72419434 14.58825439 28.13588867 15.30150879 28.56005859 16.03637695 C33.6130202 24.89859207 38.36166411 33.93643969 43.11450195 42.96240234 C43.76614025 44.19774867 44.41807461 45.43293888 45.0703125 46.66796875 C45.3879808 47.26996094 45.70564911 47.87195313 46.03294373 48.4921875 C48.7478729 53.60151466 51.61130971 58.61995876 54.55618286 63.60014343 C57 67.7864874 57 67.7864874 57 70 C38.19 70 19.38 70 0 70 C0 46.9 0 23.8 0 0 Z " fill="#EF7F1A" transform="translate(381,102)"/>
<path d="M0 0 C20.16076152 -2.05028806 20.16076152 -2.05028806 26.08740234 1.11474609 C29.4514704 3.98435795 31.75371094 7.5359627 33.98535156 11.32080078 C35.40370468 13.66811376 37.11616386 15.71266502 38.875 17.8125 C39.50535156 18.60785156 40.13570312 19.40320313 40.78515625 20.22265625 C43.60099812 23.75363256 46.45804839 27.25021934 49.3125 30.75 C54.016395 36.5215666 58.66070904 42.33462374 63.22192383 48.21972656 C65.46891384 51.10625468 67.77172129 53.92632043 70.15844727 56.69897461 C70.95944603 57.63041542 70.95944603 57.63041542 71.77662659 58.58067322 C72.18033981 59.04905106 72.58405304 59.51742889 73 60 C73.10135462 52.66776322 73.17144649 45.33570683 73.21972656 38.00292969 C73.23985164 35.50806935 73.26715452 33.01325622 73.30175781 30.51855469 C73.35023457 26.93412632 73.3729602 23.35032115 73.390625 19.765625 C73.41127014 18.64883362 73.43191528 17.53204224 73.45318604 16.38140869 C73.45348816 15.34063171 73.45379028 14.29985474 73.45410156 13.22753906 C73.46742523 11.85520111 73.46742523 11.85520111 73.48101807 10.45513916 C72.84159965 7.19151705 71.5936639 6.022445 69 4 C65.35278304 3.19234122 65.35278304 3.19234122 62 3 C62 2.01 62 1.02 62 0 C72.23 0 82.46 0 93 0 C93 0.99 93 1.98 93 3 C89.7 3.66 86.4 4.32 83 5 C81.36462972 10.03929817 80.7352699 14.33082507 80.68115234 19.67944336 C80.67110672 20.41198334 80.6610611 21.14452332 80.65071106 21.89926147 C80.62007056 24.29611498 80.60289782 26.69285781 80.5859375 29.08984375 C80.5672104 30.76136719 80.54763585 32.43288132 80.5272522 34.10438538 C80.47608773 38.48546853 80.43637844 42.86658228 80.39910889 47.24780273 C80.35897049 51.7258247 80.30792318 56.20372111 80.2578125 60.68164062 C80.1612391 69.45434107 80.07677533 78.22710405 80 87 C76.44095521 86.24051332 75.12248138 85.40310172 72.828125 82.53515625 C71.96175415 81.46672485 71.96175415 81.46672485 71.07788086 80.37670898 C70.47468018 79.61302002 69.87147949 78.84933105 69.25 78.0625 C68.6216626 77.28269775 67.9933252 76.50289551 67.34594727 75.69946289 C65.55497977 73.47331136 63.77607648 71.23803711 62 69 C61.26136719 68.07960938 60.52273438 67.15921875 59.76171875 66.2109375 C58.54061035 64.68912789 57.32318514 63.16435587 56.109375 61.63671875 C53.32474355 58.15592943 50.50428751 54.70478132 47.6875 51.25 C42.98371009 45.47834477 38.33929342 39.66537944 33.77807617 33.78027344 C31.53108616 30.89374532 29.22827871 28.07367957 26.84155273 25.30102539 C26.30755356 24.68006485 25.77355438 24.05910431 25.22337341 23.41932678 C24.81966019 22.95094894 24.41594696 22.48257111 24 22 C23.93050076 29.24961654 23.87718938 36.4991613 23.84456348 43.74904346 C23.82890489 47.11544877 23.80766379 50.48162623 23.77368164 53.84790039 C23.73738251 57.71767249 23.7202925 61.58712026 23.70703125 65.45703125 C23.69154739 66.66647903 23.67606354 67.87592682 23.66011047 69.12202454 C23.65988388 70.24296005 23.65965729 71.36389557 23.65942383 72.51879883 C23.65276199 73.50697098 23.64610016 74.49514313 23.63923645 75.51325989 C23.79923202 78.04498375 23.79923202 78.04498375 25.39360046 79.81059265 C27.37581115 81.27825739 28.74446381 81.48725113 31.1875 81.6875 C32.445625 81.790625 33.70375 81.89375 35 82 C35 82.99 35 83.98 35 85 C24.77 85 14.54 85 4 85 C4 84.01 4 83.02 4 82 C4.93972656 81.81824219 4.93972656 81.81824219 5.8984375 81.6328125 C6.71570313 81.46523438 7.53296875 81.29765625 8.375 81.125 C9.18710937 80.96257812 9.99921875 80.80015625 10.8359375 80.6328125 C13.18673923 80.13341068 13.18673923 80.13341068 15 78 C15.32861621 75.12183291 15.32861621 75.12183291 15.30639648 71.7019043 C15.31472 71.05615448 15.32304352 70.41040466 15.33161926 69.74508667 C15.35576493 67.60473644 15.36449766 65.46469085 15.37109375 63.32421875 C15.38005829 61.83689786 15.3891801 60.34957791 15.39845276 58.86225891 C15.41495884 55.74091398 15.42264549 52.61967649 15.42553711 49.49829102 C15.43091565 45.50315354 15.46856499 41.50902978 15.51428127 37.51417828 C15.5440653 34.44031619 15.55126097 31.36669747 15.55226326 28.29270363 C15.55646478 26.82030417 15.56889663 25.34790393 15.58978081 23.87564659 C15.61672033 21.8117738 15.61186528 19.75023968 15.59936523 17.6862793 C15.60443588 16.51316696 15.60950653 15.34005463 15.61473083 14.13139343 C14.81838085 10.07484549 13.12337571 8.6115229 10 6 C6.83102432 3.95549956 3.71084804 3.50602473 0 3 C0 2.01 0 1.02 0 0 Z " fill="#2B2A29" transform="translate(559,205)"/>
<path d="M0 0 C13.2 0 26.4 0 40 0 C40 0.99 40 1.98 40 3 C37.69 3.66 35.38 4.32 33 5 C32.1874706 7.3128536 31.8028712 8.51377062 32.7409668 10.82763672 C33.13968994 11.43881348 33.53841309 12.04999023 33.94921875 12.6796875 C34.38556641 13.36160156 34.82191406 14.04351562 35.27148438 14.74609375 C35.73876953 15.44863281 36.20605469 16.15117187 36.6875 16.875 C37.13544922 17.56980469 37.58339844 18.26460937 38.04492188 18.98046875 C39.34919311 20.99667843 40.67046117 23.0003817 42 25 C42.40428223 25.60875977 42.80856445 26.21751953 43.22509766 26.84472656 C44.14794254 28.23123281 45.07361974 29.61585338 46 31 C50.22800317 26.9837892 53.78909414 22.64079217 57.3125 18 C57.86228516 17.30132812 58.41207031 16.60265625 58.97851562 15.8828125 C62.07333184 11.86352123 62.07333184 11.86352123 63.41796875 7.0625 C63.20119503 5.01700231 63.20119503 5.01700231 62 4 C59.67182036 3.63239269 57.3381615 3.29758419 55 3 C55 2.01 55 1.02 55 0 C65.23 0 75.46 0 86 0 C86 0.99 86 1.98 86 3 C85.443125 3.12375 84.88625 3.2475 84.3125 3.375 C72.87539936 6.46610828 67.01651069 16.35126637 60.23144531 25.37939453 C57.23832633 29.31839608 54.10925727 33.15251126 51 37 C54.5985368 43.75576307 58.61151939 50.14639658 62.875 56.5 C63.46152344 57.38558594 64.04804688 58.27117187 64.65234375 59.18359375 C73.74510181 73.69130838 73.74510181 73.69130838 88 82 C88 82.99 88 83.98 88 85 C75.79 85 63.58 85 51 85 C51 84.01 51 83.02 51 82 C54.465 81.01 54.465 81.01 58 80 C57.92450409 72.39648296 53.59246581 67.1642775 49.4375 61.0625 C48.72658203 59.99708984 48.01566406 58.93167969 47.28320312 57.83398438 C45.53323472 55.21490414 43.77203603 52.60417779 42 50 C38.7268752 53.20840443 35.88518455 56.59803089 33.125 60.25 C32.24479815 61.41146325 31.36458983 62.57292159 30.484375 63.734375 C30.06091797 64.29447266 29.63746094 64.85457031 29.20117188 65.43164062 C28.16136629 66.78930548 27.09113096 68.12356251 26.015625 69.453125 C25.47421875 70.12859375 24.9328125 70.8040625 24.375 71.5 C23.90835938 72.0671875 23.44171875 72.634375 22.9609375 73.21875 C21.6987346 75.55844318 21.82977786 77.38395448 22 80 C24.31 80.66 26.62 81.32 29 82 C29 82.99 29 83.98 29 85 C18.77 85 8.54 85 -2 85 C-2 84.01 -2 83.02 -2 82 C-1.3709375 81.79246094 -0.741875 81.58492188 -0.09375 81.37109375 C11.46521246 77.21056359 17.51260596 69.3966727 24.62646484 59.82617188 C27.07368978 56.57248497 29.60236648 53.38283579 32.125 50.1875 C33.06512926 48.99350934 34.00523572 47.79950073 34.9453125 46.60546875 C35.62335938 45.74566406 36.30140625 44.88585937 37 44 C33.29415731 36.99381058 29.08524812 30.42207103 24.625 23.875 C23.99078125 22.92496094 23.3565625 21.97492188 22.703125 20.99609375 C15.60375779 10.06818547 15.60375779 10.06818547 4.5625 4.0625 C3.69753906 3.84722656 2.83257812 3.63195312 1.94140625 3.41015625 C1.30074219 3.27480469 0.66007812 3.13945312 0 3 C0 2.01 0 1.02 0 0 Z " fill="#2B2A29" transform="translate(80,205)"/>
<path d="M0 0 C21.78 0 43.56 0 66 0 C66.495 9.405 66.495 9.405 67 19 C65.68 19 64.36 19 63 19 C62.81824219 18.38511719 62.63648438 17.77023438 62.44921875 17.13671875 C62.19785156 16.32847656 61.94648437 15.52023438 61.6875 14.6875 C61.44386719 13.88699219 61.20023438 13.08648437 60.94921875 12.26171875 C59.92646332 9.82478298 59.08393437 8.60873794 57 7 C53.52831541 5.8542691 50.1197359 5.79926432 46.484375 5.68359375 C45.35741211 5.64548584 44.23044922 5.60737793 43.06933594 5.56811523 C41.64395508 5.52501221 40.21857422 5.48190918 38.75 5.4375 C34.2125 5.293125 29.675 5.14875 25 5 C25 15.89 25 26.78 25 38 C28.155625 37.87625 31.31125 37.7525 34.5625 37.625 C35.5429126 37.59100098 36.5233252 37.55700195 37.53344727 37.52197266 C42.63768644 37.29323153 47.27147631 37.01947366 52 35 C53.67646691 32.66744752 53.67646691 32.66744752 54.4375 29.875 C54.74558594 28.96492188 55.05367187 28.05484375 55.37109375 27.1171875 C55.57863281 26.41851562 55.78617188 25.71984375 56 25 C56.99 25 57.98 25 59 25 C59 35.23 59 45.46 59 56 C57.68 55.67 56.36 55.34 55 55 C54.05337385 52.73959831 53.61620323 50.5216016 53.1015625 48.12890625 C52.14662843 45.77960977 52.14662843 45.77960977 49.578125 44.75390625 C44.75750374 43.73820767 40.03867262 43.5353689 35.125 43.375 C31.78375 43.25125 28.4425 43.1275 25 43 C25.495 60.82 25.495 60.82 26 79 C30.125 79.061875 34.25 79.12375 38.5 79.1875 C40.42682617 79.22846802 40.42682617 79.22846802 42.39257812 79.27026367 C49.72762811 79.32332525 56.05259752 79.20290221 61.98828125 74.38671875 C62.42527344 73.82597656 62.86226562 73.26523437 63.3125 72.6875 C63.78558594 72.08164062 64.25867188 71.47578125 64.74609375 70.8515625 C66.44041226 68.34967162 67.78655735 65.76395269 69 63 C70.32 63 71.64 63 73 63 C71.50835177 71.00065871 69.04062367 77.09437845 66 85 C44.22 85 22.44 85 0 85 C0 84.01 0 83.02 0 82 C0.93972656 81.83564453 0.93972656 81.83564453 1.8984375 81.66796875 C2.71570313 81.50941406 3.53296875 81.35085938 4.375 81.1875 C5.18710937 81.03667969 5.99921875 80.88585937 6.8359375 80.73046875 C9.35820641 80.12455058 9.35820641 80.12455058 11 77 C11.29868939 73.92595691 11.29868939 73.92595691 11.24291992 70.37304688 C11.24481827 69.7044313 11.24671661 69.03581573 11.24867249 68.34693909 C11.2523763 66.13742333 11.24168155 63.92823653 11.23046875 61.71875 C11.22927656 60.18322793 11.22882387 58.64770513 11.2290802 57.11218262 C11.22751599 53.89424066 11.21923137 50.67641005 11.20581055 47.45849609 C11.18882083 43.33243563 11.18499627 39.20649754 11.18575573 35.08040619 C11.18548387 31.90971711 11.18000011 28.73905481 11.17275429 25.56837463 C11.16957083 24.04692284 11.16760096 22.52546801 11.16686058 21.00401306 C11.1646936 18.87827378 11.15594162 16.75266449 11.14526367 14.62695312 C11.14145187 13.41688599 11.13764008 12.20681885 11.13371277 10.96008301 C11.1323857 7.94199811 11.1323857 7.94199811 10 5 C6.7 4.34 3.4 3.68 0 3 C0 2.01 0 1.02 0 0 Z " fill="#2B2A29" transform="translate(486,205)"/>
<path d="M0 0 C21.78 0 43.56 0 66 0 C66.495 9.405 66.495 9.405 67 19 C65.68 19 64.36 19 63 19 C62.81824219 18.38511719 62.63648438 17.77023438 62.44921875 17.13671875 C62.19785156 16.32847656 61.94648438 15.52023438 61.6875 14.6875 C61.44386719 13.88699219 61.20023437 13.08648437 60.94921875 12.26171875 C59.92646332 9.82478298 59.08393437 8.60873794 57 7 C53.52831541 5.8542691 50.1197359 5.79926432 46.484375 5.68359375 C45.35741211 5.64548584 44.23044922 5.60737793 43.06933594 5.56811523 C41.64395508 5.52501221 40.21857422 5.48190918 38.75 5.4375 C34.2125 5.293125 29.675 5.14875 25 5 C25 15.89 25 26.78 25 38 C28.155625 37.87625 31.31125 37.7525 34.5625 37.625 C35.5429126 37.59100098 36.5233252 37.55700195 37.53344727 37.52197266 C42.63768644 37.29323153 47.27147631 37.01947366 52 35 C53.67646691 32.66744752 53.67646691 32.66744752 54.4375 29.875 C54.74558594 28.96492188 55.05367188 28.05484375 55.37109375 27.1171875 C55.57863281 26.41851562 55.78617187 25.71984375 56 25 C56.99 25 57.98 25 59 25 C59 35.23 59 45.46 59 56 C57.68 55.67 56.36 55.34 55 55 C54.05337385 52.73959831 53.61620323 50.5216016 53.1015625 48.12890625 C52.14662843 45.77960977 52.14662843 45.77960977 49.578125 44.75390625 C44.75750374 43.73820767 40.03867262 43.5353689 35.125 43.375 C31.78375 43.25125 28.4425 43.1275 25 43 C25.495 60.82 25.495 60.82 26 79 C30.125 79.061875 34.25 79.12375 38.5 79.1875 C40.42682617 79.22846802 40.42682617 79.22846802 42.39257812 79.27026367 C49.72762811 79.32332525 56.05259752 79.20290221 61.98828125 74.38671875 C62.42527344 73.82597656 62.86226563 73.26523437 63.3125 72.6875 C63.78558594 72.08164062 64.25867188 71.47578125 64.74609375 70.8515625 C66.44041226 68.34967162 67.78655735 65.76395269 69 63 C70.32 63 71.64 63 73 63 C71.50835177 71.00065871 69.04062367 77.09437845 66 85 C44.22 85 22.44 85 0 85 C0 84.01 0 83.02 0 82 C0.93972656 81.83564453 0.93972656 81.83564453 1.8984375 81.66796875 C2.71570313 81.50941406 3.53296875 81.35085938 4.375 81.1875 C5.18710937 81.03667969 5.99921875 80.88585937 6.8359375 80.73046875 C9.35820641 80.12455058 9.35820641 80.12455058 11 77 C11.29211622 73.78238126 11.29211622 73.78238126 11.22705078 70.05004883 C11.22748886 68.99600609 11.22748886 68.99600609 11.22793579 67.92066956 C11.22654308 65.59933093 11.21098487 63.27831377 11.1953125 60.95703125 C11.19158216 59.34706294 11.18873528 57.73709236 11.18673706 56.12712097 C11.17910227 51.89053068 11.15945513 47.6540776 11.1373291 43.4175415 C11.11686735 39.09413509 11.10773464 34.7707065 11.09765625 30.44726562 C11.07620906 21.96478079 11.04207501 13.48240747 11 5 C7.37 4.34 3.74 3.68 0 3 C0 2.01 0 1.02 0 0 Z " fill="#2B2A29" transform="translate(255,205)"/>
<path d="M0 0 C21.78 0 43.56 0 66 0 C66.76106485 4.56638911 67.10902312 8.31573454 67.0625 12.875 C67.05347656 14.02742187 67.04445313 15.17984375 67.03515625 16.3671875 C67.02355469 17.23601562 67.01195312 18.10484375 67 19 C65.09765625 18.7421875 65.09765625 18.7421875 63 18 C62.05859375 16.2578125 62.05859375 16.2578125 61.4375 14.125 C60.49779365 10.96151653 59.62998066 9.06685539 57 7 C53.53005821 5.85100935 50.11873649 5.79923252 46.484375 5.68359375 C45.35741211 5.64548584 44.23044922 5.60737793 43.06933594 5.56811523 C41.64395508 5.52501221 40.21857422 5.48190918 38.75 5.4375 C34.2125 5.293125 29.675 5.14875 25 5 C25 15.89 25 26.78 25 38 C28.34125 37.87625 31.6825 37.7525 35.125 37.625 C36.16672363 37.59100098 37.20844727 37.55700195 38.28173828 37.52197266 C43.13668624 37.31559768 47.52727018 37.09636775 52 35 C54.0179671 31.79908667 55.28587943 28.71342695 56 25 C56.99 25 57.98 25 59 25 C59 35.23 59 45.46 59 56 C58.01 56 57.02 56 56 56 C55.80664062 55.37351562 55.61328125 54.74703125 55.4140625 54.1015625 C55.15367187 53.28429687 54.89328125 52.46703125 54.625 51.625 C54.36976563 50.81289062 54.11453125 50.00078125 53.8515625 49.1640625 C53.10145717 46.83540815 53.10145717 46.83540815 51 45 C47.95340419 43.97551397 44.99430165 43.81372158 41.796875 43.68359375 C40.32734375 43.62075195 40.32734375 43.62075195 38.828125 43.55664062 C37.30445313 43.49766602 37.30445313 43.49766602 35.75 43.4375 C34.71875 43.39431641 33.6875 43.35113281 32.625 43.30664062 C30.0834613 43.20074318 27.54182804 43.09866557 25 43 C25.11829766 47.50253816 25.24254934 52.00485779 25.37231445 56.50708008 C25.41561833 58.03861018 25.45729667 59.57018715 25.49731445 61.10180664 C25.55512732 63.30369182 25.61878969 65.50534211 25.68359375 67.70703125 C25.70030624 68.39150833 25.71701874 69.07598541 25.73423767 69.78120422 C25.8273555 72.77120104 26.04687437 75.14062311 27 78 C30.93138718 79.96569359 35.86498228 79.18484326 40.1875 79.1875 C41.21681641 79.19974609 42.24613281 79.21199219 43.30664062 79.22460938 C52.99385941 79.37990009 52.99385941 79.37990009 61.328125 75.01171875 C61.96234375 74.24472656 62.5965625 73.47773438 63.25 72.6875 C63.89453125 71.92824219 64.5390625 71.16898437 65.203125 70.38671875 C67.07881034 68.01046233 67.07881034 68.01046233 68.546875 65.20703125 C69.02640625 64.47871094 69.5059375 63.75039063 70 63 C70.99 63 71.98 63 73 63 C72.42208517 68.10929244 71.2819361 72.51611611 69.5 77.375 C68.83484375 79.21191406 68.83484375 79.21191406 68.15625 81.0859375 C67 84 67 84 66 85 C63.94443339 85.09413687 61.88559819 85.11742998 59.82788086 85.11352539 C58.86205833 85.11374443 58.86205833 85.11374443 57.87672424 85.1139679 C55.73939697 85.11326885 53.60215587 85.10547691 51.46484375 85.09765625 C49.98653715 85.09579204 48.50822993 85.09436815 47.02992249 85.09336853 C43.13201198 85.08954359 39.23413851 85.07971352 35.33624268 85.06866455 C31.36153667 85.05844992 27.38682471 85.0538708 23.41210938 85.04882812 C15.608056 85.03809122 7.80403318 85.02101509 0 85 C0 84.01 0 83.02 0 82 C5.445 81.01 5.445 81.01 11 80 C11.06946019 70.53383128 11.12279088 61.06775006 11.15543652 51.60138226 C11.1711035 47.20592445 11.19236044 42.81064078 11.22631836 38.4152832 C11.25887524 34.17481076 11.27684523 29.93450599 11.28463173 25.69391823 C11.29018187 24.07474947 11.30101979 22.45559006 11.31719017 20.83649254 C11.33891617 18.57137477 11.34196903 16.30695297 11.34057617 14.04174805 C11.34723801 12.75157272 11.35389984 11.4613974 11.36076355 10.13212585 C11.2648598 7.03312433 11.2648598 7.03312433 9.60639954 5.09187317 C7.62434368 3.74466561 6.19056829 3.50742363 3.8125 3.3125 C1.9253125 3.1578125 1.9253125 3.1578125 0 3 C0 2.01 0 1.02 0 0 Z " fill="#2B2A29" transform="translate(738,205)"/>
<path d="M0 0 C8.45767334 -0.02312659 16.91533356 -0.0409167 25.37303066 -0.05181217 C29.29988658 -0.05704031 33.22672094 -0.06413669 37.15356445 -0.07543945 C40.94014257 -0.0862708 44.7266999 -0.09227736 48.51329231 -0.09487724 C49.96104319 -0.09673105 51.40879288 -0.10035081 52.85653496 -0.10573006 C54.87757135 -0.11294367 56.89862848 -0.11340808 58.91967773 -0.11352539 C60.64842384 -0.11685631 60.64842384 -0.11685631 62.41209412 -0.12025452 C65 0 65 0 66 1 C66.08631874 2.34267413 66.10706473 3.68974322 66.09765625 5.03515625 C66.09282227 6.24848633 66.09282227 6.24848633 66.08789062 7.48632812 C66.07532227 8.7615332 66.07532227 8.7615332 66.0625 10.0625 C66.05798828 10.91650391 66.05347656 11.77050781 66.04882812 12.65039062 C66.03700373 14.76695663 66.01906769 16.88348685 66 19 C65.01 19 64.02 19 63 19 C62.67128906 17.96939453 62.67128906 17.96939453 62.3359375 16.91796875 C62.01882812 16.01691406 61.70171875 15.11585938 61.375 14.1875 C61.07335937 13.29417969 60.77171875 12.40085938 60.4609375 11.48046875 C58.48966167 8.13351647 56.56528338 7.47507323 53 6 C49.72337471 5.50413902 49.72337471 5.50413902 46.2890625 5.48828125 C45.16709473 5.45516846 44.04512695 5.42205566 42.88916016 5.38793945 C41.4819873 5.36304443 40.07481445 5.33814941 38.625 5.3125 C34.12875 5.209375 29.6325 5.10625 25 5 C25 15.89 25 26.78 25 38 C29.7334375 37.7834375 29.7334375 37.7834375 34.5625 37.5625 C36.0331189 37.49784546 36.0331189 37.49784546 37.53344727 37.43188477 C42.41669117 37.19769898 47.17439659 36.78771853 52 36 C53.485 30.555 53.485 30.555 55 25 C55.99 25 56.98 25 58 25 C58 35.23 58 45.46 58 56 C57.01 56 56.02 56 55 56 C54.01 51.05 54.01 51.05 53 46 C47.0075839 43.95543084 41.36296753 43.58244303 35.0625 43.375 C31.741875 43.25125 28.42125 43.1275 25 43 C25.33 54.55 25.66 66.1 26 78 C30.04025116 80.02012558 35.1842729 79.22902844 39.625 79.25 C40.69363281 79.270625 41.76226562 79.29125 42.86328125 79.3125 C49.95006353 79.34736732 56.53825534 79.25091149 61.98828125 74.1328125 C62.42527344 73.47023438 62.86226562 72.80765625 63.3125 72.125 C63.79074219 71.42632812 64.26898438 70.72765625 64.76171875 70.0078125 C65.7710839 68.37117626 66.70917349 66.69075663 67.625 65 C68.07875 64.34 68.5325 63.68 69 63 C70.32 63 71.64 63 73 63 C70.83902139 70.39971463 68.44001626 77.67995121 66 85 C44.22 85 22.44 85 0 85 C0 84.01 0 83.02 0 82 C0.93972656 81.88785156 0.93972656 81.88785156 1.8984375 81.7734375 C3.12433594 81.57621094 3.12433594 81.57621094 4.375 81.375 C5.18710938 81.25898438 5.99921875 81.14296875 6.8359375 81.0234375 C9.28118952 80.16186582 9.28118952 80.16186582 10.11907959 77.33410645 C11.01489228 73.94363573 11.25367015 71.13025494 11.25878906 67.63085938 C11.26824554 65.76862732 11.26824554 65.76862732 11.27789307 63.86877441 C11.27431291 62.52709815 11.27021086 61.1854232 11.265625 59.84375 C11.26697398 58.45422294 11.26891645 57.06469635 11.27142334 55.6751709 C11.27436367 52.77021773 11.27011225 49.86538798 11.26074219 46.96044922 C11.24934821 43.24835128 11.25591355 39.53654261 11.26788712 35.82445526 C11.2751353 32.9573145 11.27280425 30.09024163 11.26763153 27.22309875 C11.26630321 25.85484279 11.26791394 24.48658053 11.27259064 23.11833191 C11.27770438 21.20193612 11.2685205 19.28551853 11.25878906 17.36914062 C11.25719788 16.28137329 11.25560669 15.19360596 11.25396729 14.07287598 C10.97891066 10.74482965 10.29138679 8.07636718 9 5 C6.85635805 3.85585408 6.85635805 3.85585408 4.375 3.625 C3.55773437 3.49351562 2.74046875 3.36203125 1.8984375 3.2265625 C1.27195312 3.15179688 0.64546875 3.07703125 0 3 C0 2.01 0 1.02 0 0 Z " fill="#2B2A29" transform="translate(3,205)"/>
<path d="M0 0 C67.98 0 135.96 0 206 0 C206 3.3 206 6.6 206 10 C138.02 10 70.04 10 0 10 C0 6.7 0 3.4 0 0 Z " fill="#2B2A29" transform="translate(604,396)"/>
<path d="M0 0 C67.65 0 135.3 0 205 0 C205 3.3 205 6.6 205 10 C137.35 10 69.7 10 0 10 C0 6.7 0 3.4 0 0 Z " fill="#2B2A29" transform="translate(0,396)"/>
<path d="M0 0 C2.46257207 1.05471538 4.3912561 1.02308866 7.04296875 0.875 C7.70296875 -0.445 8.36296875 -1.765 9.04296875 -3.125 C10.36296875 -3.125 11.68296875 -3.125 13.04296875 -3.125 C14.03296875 11.23 14.03296875 11.23 15.04296875 25.875 C13.72296875 25.875 12.40296875 25.875 11.04296875 25.875 C10.58857422 24.68003906 10.58857422 24.68003906 10.125 23.4609375 C6.6209504 14.59838744 3.88105766 8.8009942 -4.9921875 4.63671875 C-12.0359422 1.9060385 -19.194349 1.93971196 -26.26953125 4.5625 C-33.21647178 7.66090071 -37.97277631 12.97168558 -40.8359375 20.046875 C-45.61025318 33.79321387 -46.25559315 50.79265991 -39.890625 64.10546875 C-35.84446437 71.22297243 -30.33822672 76.14108701 -22.41015625 78.40625 C-14.8167551 79.85721837 -6.83376741 79.66373719 0.04296875 75.875 C3.61072431 73.09889035 6.84032054 70.06090964 10.04296875 66.875 C10.90535156 66.03388672 10.90535156 66.03388672 11.78515625 65.17578125 C12.88602552 64.09046098 13.96791082 62.98589319 15.04296875 61.875 C15.79296875 63.5 15.79296875 63.5 16.04296875 65.875 C14.41796875 68.75 14.41796875 68.75 12.04296875 71.875 C11.34171875 72.865 10.64046875 73.855 9.91796875 74.875 C4.92682106 80.74693845 -3.46727892 85.3223859 -11.13012695 86.09375 C-24.65579296 86.75387401 -36.10150508 85.9991939 -46.88671875 76.9921875 C-56.73762907 66.9182377 -60.24913424 54.70571735 -60.27392578 41.00976562 C-60.07808128 28.91092729 -56.1168986 17.70860284 -47.95703125 8.65625 C-35.80369619 -2.97622784 -15.46622802 -8.11343109 0 0 Z " fill="#2B2A29" transform="translate(232.95703125,206.125)"/>
<path d="M0 0 C2.78234626 0.95628136 4.46784956 0.56358304 7.26171875 -0.22265625 C7.59171875 -1.21265625 7.92171875 -2.20265625 8.26171875 -3.22265625 C9.58171875 -3.22265625 10.90171875 -3.22265625 12.26171875 -3.22265625 C12.60037773 0.29768581 12.9316797 3.81868393 13.26171875 7.33984375 C13.35710937 8.33048828 13.4525 9.32113281 13.55078125 10.34179688 C14.03179996 15.51274803 14.37825509 20.58419327 14.26171875 25.77734375 C12.375 25.5625 12.375 25.5625 10.26171875 24.77734375 C9.2421875 22.7734375 9.2421875 22.7734375 8.44921875 20.21484375 C6.07595692 13.80978575 2.90775616 8.97989877 -3.02734375 5.39453125 C-10.91858582 1.81215787 -18.7910452 1.49525152 -26.98828125 4.27734375 C-33.92174048 7.42491413 -38.00155187 12.59570065 -41.05078125 19.46484375 C-45.96243595 33.16688476 -46.53356973 48.94138698 -40.98828125 62.52734375 C-37.44648197 69.77959942 -33.40936653 74.01532688 -25.88671875 77.05078125 C-17.28401051 79.96006077 -9.17567673 79.6726702 -0.8828125 75.8984375 C5.44390938 72.59102552 9.08580112 67.4094171 13.26171875 61.77734375 C14.25171875 62.76734375 15.24171875 63.75734375 16.26171875 64.77734375 C10.80608338 74.01983191 4.13752311 81.83201956 -6.38671875 85.15234375 C-18.6174498 87.43313276 -31.16763752 86.99491107 -41.96484375 80.421875 C-51.2004632 73.97077752 -57.5182059 64.93587134 -60.05078125 53.90234375 C-62.40869193 39.36945198 -60.22425394 25.00384387 -51.73828125 12.77734375 C-39.54136784 -2.54139869 -18.0008863 -8.60911953 0 0 Z " fill="#2B2A29" transform="translate(716.73828125,206.22265625)"/>
<path d="M0 0 C12.87 0 25.74 0 39 0 C39 0.99 39 1.98 39 3 C38.30132812 3.13277344 37.60265625 3.26554688 36.8828125 3.40234375 C35.97273438 3.57894531 35.06265625 3.75554687 34.125 3.9375 C32.76761719 4.19853516 32.76761719 4.19853516 31.3828125 4.46484375 C29.00043683 4.89963701 29.00043683 4.89963701 27 6 C25.8889517 9.3331449 25.866309 11.83958532 25.85473633 15.3515625 C25.84835648 16.66302246 25.84197662 17.97448242 25.83540344 19.32568359 C25.83387496 20.75878869 25.83276089 22.19189428 25.83203125 23.625 C25.82881818 25.09326205 25.82545407 26.56152378 25.82194519 28.02978516 C25.81595826 31.10645287 25.8141049 34.1830925 25.81469727 37.25976562 C25.814799 41.20426716 25.80113317 45.14858916 25.78392506 49.0930481 C25.77281475 52.1247643 25.77077774 55.15643691 25.77130699 58.18817139 C25.77012593 59.64264547 25.76569712 61.09712065 25.75797462 62.55157471 C25.74819247 64.58383878 25.75231243 66.61615547 25.75708008 68.6484375 C25.75565506 69.80520996 25.75423004 70.96198242 25.75276184 72.15380859 C25.78788294 75.20248867 25.78788294 75.20248867 28 78 C32.16748972 78.67712502 36.4091643 78.462676 40.625 78.4375 C41.78902344 78.45748047 42.95304687 78.47746094 44.15234375 78.49804688 C52.28620402 78.49344107 58.27021622 77.72978378 64.25 71.75 C66.45126546 68.29086856 68.26794713 64.71285801 70 61 C70.99 61 71.98 61 73 61 C72.65475475 66.63900572 71.28562775 71.61093516 69.5 76.9375 C69.16125854 77.94985718 69.16125854 77.94985718 68.81567383 78.98266602 C67.14041539 83.85958461 67.14041539 83.85958461 66 85 C63.94443339 85.09413687 61.88559819 85.11742998 59.82788086 85.11352539 C58.86205833 85.11374443 58.86205833 85.11374443 57.87672424 85.1139679 C55.73939697 85.11326885 53.60215587 85.10547691 51.46484375 85.09765625 C49.98653715 85.09579204 48.50822993 85.09436815 47.02992249 85.09336853 C43.13201198 85.08954359 39.23413851 85.07971352 35.33624268 85.06866455 C31.36153667 85.05844992 27.38682471 85.0538708 23.41210938 85.04882812 C15.608056 85.03809122 7.80403318 85.02101509 0 85 C0 84.01 0 83.02 0 82 C0.62648438 81.90203125 1.25296875 81.8040625 1.8984375 81.703125 C2.71570313 81.55359375 3.53296875 81.4040625 4.375 81.25 C5.18710937 81.11078125 5.99921875 80.9715625 6.8359375 80.828125 C9.09202432 80.20076622 9.09202432 80.20076622 10.11907959 78.35705566 C11.26478817 75.29151322 11.25433416 72.73271672 11.25878906 69.45898438 C11.2622937 68.81133621 11.26579834 68.16368805 11.26940918 67.49641418 C11.27818977 65.36208278 11.27239053 63.22808461 11.265625 61.09375 C11.26697271 59.60689226 11.26891413 58.12003495 11.27142334 56.63317871 C11.27436962 53.51956988 11.27009297 50.40607593 11.26074219 47.29248047 C11.24934787 43.30436813 11.25591001 39.31652501 11.26788712 35.32842255 C11.27511914 32.2589109 11.27281163 29.18946292 11.26763153 26.11994934 C11.26629875 24.64956124 11.26792974 23.17916733 11.27259064 21.70878601 C11.27767802 19.6527071 11.26991501 17.59706227 11.25878906 15.54101562 C11.25719788 14.37171509 11.25560669 13.20241455 11.25396729 11.99768066 C11.0068724 9.08111772 10.63687389 7.40312906 9 5 C6.82791412 4.08839907 6.82791412 4.08839907 4.375 3.75 C3.55773437 3.60046875 2.74046875 3.4509375 1.8984375 3.296875 C0.95871094 3.14992187 0.95871094 3.14992187 0 3 C0 2.01 0 1.02 0 0 Z " fill="#2B2A29" transform="translate(332,205)"/>
<path d="M0 0 C12.87 0 25.74 0 39 0 C39 0.99 39 1.98 39 3 C38.30132812 3.13277344 37.60265625 3.26554688 36.8828125 3.40234375 C35.97273438 3.57894531 35.06265625 3.75554687 34.125 3.9375 C32.76761719 4.19853516 32.76761719 4.19853516 31.3828125 4.46484375 C29.00043683 4.89963701 29.00043683 4.89963701 27 6 C25.8889517 9.3331449 25.866309 11.83958532 25.85473633 15.3515625 C25.84835648 16.66302246 25.84197662 17.97448242 25.83540344 19.32568359 C25.83387496 20.75878869 25.83276089 22.19189428 25.83203125 23.625 C25.82881818 25.09326205 25.82545407 26.56152378 25.82194519 28.02978516 C25.81595826 31.10645287 25.8141049 34.1830925 25.81469727 37.25976562 C25.814799 41.20426716 25.80113317 45.14858916 25.78392506 49.0930481 C25.77281475 52.1247643 25.77077774 55.15643691 25.77130699 58.18817139 C25.77012593 59.64264547 25.76569712 61.09712065 25.75797462 62.55157471 C25.74819247 64.58383878 25.75231243 66.61615547 25.75708008 68.6484375 C25.75565506 69.80520996 25.75423004 70.96198242 25.75276184 72.15380859 C25.78788294 75.20248867 25.78788294 75.20248867 28 78 C32.16748972 78.67712502 36.4091643 78.462676 40.625 78.4375 C41.78902344 78.45748047 42.95304687 78.47746094 44.15234375 78.49804688 C52.28620402 78.49344107 58.27021622 77.72978378 64.25 71.75 C66.45126546 68.29086856 68.26794713 64.71285801 70 61 C70.99 61 71.98 61 73 61 C72.65475475 66.63900572 71.28562775 71.61093516 69.5 76.9375 C69.16125854 77.94985718 69.16125854 77.94985718 68.81567383 78.98266602 C67.14041539 83.85958461 67.14041539 83.85958461 66 85 C63.94443339 85.09413687 61.88559819 85.11742998 59.82788086 85.11352539 C58.86205833 85.11374443 58.86205833 85.11374443 57.87672424 85.1139679 C55.73939697 85.11326885 53.60215587 85.10547691 51.46484375 85.09765625 C49.98653715 85.09579204 48.50822993 85.09436815 47.02992249 85.09336853 C43.13201198 85.08954359 39.23413851 85.07971352 35.33624268 85.06866455 C31.36153667 85.05844992 27.38682471 85.0538708 23.41210938 85.04882812 C15.608056 85.03809122 7.80403318 85.02101509 0 85 C0 84.01 0 83.02 0 82 C0.93972656 81.83564453 0.93972656 81.83564453 1.8984375 81.66796875 C2.71570313 81.50941406 3.53296875 81.35085938 4.375 81.1875 C5.18710937 81.03667969 5.99921875 80.88585937 6.8359375 80.73046875 C9.35820641 80.12455058 9.35820641 80.12455058 11 77 C11.30544152 73.97396415 11.30544152 73.97396415 11.25878906 70.48071289 C11.2622937 69.82345718 11.26579834 69.16620148 11.26940918 68.48902893 C11.27821005 66.31679718 11.27238265 64.14489131 11.265625 61.97265625 C11.26697229 60.46194903 11.26891336 58.95124223 11.27142334 57.4405365 C11.2743725 54.27387363 11.27008429 51.10732358 11.26074219 47.94067383 C11.24935746 43.88415303 11.25590211 39.82789718 11.26788712 35.77138615 C11.27511968 32.65126048 11.27281121 29.53119744 11.26763153 26.41106987 C11.26629839 24.91556199 11.267931 23.42004841 11.27259064 21.9245472 C11.2776778 19.83243921 11.26991483 17.74075791 11.25878906 15.64868164 C11.25719788 14.45860001 11.25560669 13.26851837 11.25396729 12.04237366 C11.00856286 9.10257785 10.65373848 7.41794425 9 5 C6.82791412 4.08839907 6.82791412 4.08839907 4.375 3.75 C3.55773437 3.60046875 2.74046875 3.4509375 1.8984375 3.296875 C0.95871094 3.14992187 0.95871094 3.14992187 0 3 C0 2.01 0 1.02 0 0 Z " fill="#2B2A29" transform="translate(409,205)"/>
<path d="M0 0 C7.3940625 -0.061875 7.3940625 -0.061875 14.9375 -0.125 C16.47398193 -0.14320801 18.01046387 -0.16141602 19.59350586 -0.18017578 C38.6997319 -0.25737265 38.6997319 -0.25737265 46 6 C49.77216978 11.15529869 49.81227294 16.84993346 49 23 C47.43759126 27.43083095 44.95335322 30.48004662 41 33 C31.876837 36.16909873 22.74063229 36.3817136 13.1875 36.1875 C8.835625 36.125625 4.48375 36.06375 0 36 C0 24.12 0 12.24 0 0 Z " fill="#EF7F1A" transform="translate(382,34)"/>
<path d="M0 0 C6.93 0 13.86 0 21 0 C21 0.66 21 1.32 21 2 C19.02 2.99 19.02 2.99 17 4 C18.51593907 11.78792875 20.9789026 19.09140938 23.625 26.5625 C24.04523438 27.76197266 24.46546875 28.96144531 24.8984375 30.19726562 C25.92774866 33.13314177 26.96169884 36.06729381 28 39 C29.2161152 35.84360164 30.39241386 32.67371937 31.5625 29.5 C31.90474609 28.613125 32.24699219 27.72625 32.59960938 26.8125 C35.2025259 19.66105258 35.48499462 14.93523574 32.75 7.6875 C30.81241865 4.71192864 29.07904696 3.66434971 26 2 C26 1.34 26 0.68 26 0 C33.26 0 40.52 0 48 0 C48 0.66 48 1.32 48 2 C46.35 2.33 44.7 2.66 43 3 C44.32020762 11.20498483 46.83808244 18.8129217 49.625 26.625 C50.04523438 27.81996094 50.46546875 29.01492188 50.8984375 30.24609375 C51.92632545 33.16622998 52.96028162 36.08405964 54 39 C55.41672274 35.16277098 56.82208232 31.32158141 58.2175293 27.4765625 C58.69269528 26.17207156 59.17082614 24.86865629 59.65209961 23.56640625 C63.37246215 13.52057086 63.37246215 13.52057086 65 3 C62.525 2.505 62.525 2.505 60 2 C60 1.34 60 0.68 60 0 C65.61 0 71.22 0 77 0 C76.67 0.99 76.34 1.98 76 3 C75.03374695 3.4635791 75.03374695 3.4635791 74.04797363 3.93652344 C71.43757163 5.29205912 71.15770597 6.26725038 70.23242188 9.015625 C69.94532349 9.84408936 69.6582251 10.67255371 69.36242676 11.52612305 C69.06751343 12.42500244 68.7726001 13.32388184 68.46875 14.25 C68.15095581 15.1778833 67.83316162 16.1057666 67.5057373 17.06176758 C66.48986664 20.03664808 65.49436412 23.01786976 64.5 26 C63.5015017 28.95201893 62.49884127 31.90258414 61.4942627 34.85253906 C60.8709019 36.68761717 60.2517261 38.52412445 59.63757324 40.36230469 C57.6303512 46.33074155 55.3958551 52.17687633 53 58 C52.01 57.67 51.02 57.34 50 57 C48.74145508 54.27197266 48.74145508 54.27197266 47.51953125 50.6640625 C47.19295784 49.7113295 47.19295784 49.7113295 46.85978699 48.73934937 C46.40135282 47.39452799 45.94864213 46.04774405 45.5012207 44.69921875 C44.81619016 42.63611365 44.11385881 40.57956793 43.40820312 38.5234375 C40 28.47052854 40 28.47052854 40 25 C39.34 25 38.68 25 38 25 C37.87761963 25.86061035 37.75523926 26.7212207 37.62915039 27.60791016 C37.00153609 30.99171812 36.07391473 34.029144 34.93359375 37.2734375 C34.53076172 38.42714844 34.12792969 39.58085937 33.71289062 40.76953125 C33.29201172 41.95933594 32.87113281 43.14914062 32.4375 44.375 C31.80038086 46.19451172 31.80038086 46.19451172 31.15039062 48.05078125 C30.10459637 51.03540754 29.05433507 54.01838236 28 57 C26.68 57 25.36 57 24 57 C23.66507286 56.04826401 23.66507286 56.04826401 23.32337952 55.07730103 C21.00532452 48.4910842 18.68544938 41.90551059 16.36450195 35.3203125 C15.49782065 32.86051724 14.63160825 30.40055672 13.76586914 27.94042969 C12.52352294 24.41037444 11.27950798 20.88091121 10.03515625 17.3515625 C9.45230614 15.69370224 9.45230614 15.69370224 8.85768127 14.00234985 C8.49738327 12.98144257 8.13708527 11.96053528 7.76586914 10.90869141 C7.44832169 10.00712311 7.13077423 9.10555481 6.80360413 8.17666626 C6.0438692 5.99627301 6.0438692 5.99627301 5 4 C3.35636866 3.27840576 1.68949614 2.60648579 0 2 C0 1.34 0 0.68 0 0 Z " fill="#0B5FA3" transform="translate(148,321)"/>
<path d="M0 0 C4.0018325 -0.04978833 8.00354265 -0.08590164 12.00561523 -0.10986328 C13.36437118 -0.11986243 14.72310594 -0.13346624 16.08178711 -0.15087891 C18.04531296 -0.17539594 20.00900201 -0.18546962 21.97265625 -0.1953125 C23.15093994 -0.20578613 24.32922363 -0.21625977 25.54321289 -0.22705078 C30.7925284 0.11773793 34.76050205 0.95331284 38.8125 4.375 C42.34845588 8.61814706 43.49523263 11.27470081 43.3046875 16.98046875 C42.77481782 20.49255368 41.33717009 22.37068365 39 25 C37.64141182 25.9322829 36.25372431 26.82320532 34.84375 27.67578125 C34.12380859 28.11446533 33.40386719 28.55314941 32.66210938 29.00512695 C32.11361328 29.33343506 31.56511719 29.66174316 31 30 C33.05084226 32.92502332 35.11766757 35.83839106 37.1875 38.75 C37.76564453 39.575 38.34378906 40.4 38.93945312 41.25 C43.49729835 47.63613343 47.22224078 51.82946254 55 54 C55 54.66 55 55.32 55 56 C49.30418157 57.16644904 43.55965162 58.1534368 38 56 C32.82659753 51.42285408 29.60615319 45.14412365 26.25537109 39.18994141 C24.71833949 36.50865524 23.195269 34.18650545 21 32 C19.35 31.67 17.7 31.34 16 31 C16.33 38.26 16.66 45.52 17 53 C20.465 53.495 20.465 53.495 24 54 C24 54.66 24 55.32 24 56 C16.08 56 8.16 56 0 56 C0 55.34 0 54.68 0 54 C1.98 53.34 3.96 52.68 6 52 C6 36.49 6 20.98 6 5 C4.02 4.01 2.04 3.02 0 2 C0 1.34 0 0.68 0 0 Z M16 5 C16 12.26 16 19.52 16 27 C22.6803176 27 26.0502597 26.84802512 30.8125 22.25 C32.48307261 19.08470452 32.87671301 16.57532268 33 13 C31.76648839 9.43652203 30.64446777 7.53705647 27.75 5.125 C23.82981764 3.52128904 19.87392763 3.06303619 16 5 Z " fill="#0B5FA3" transform="translate(466,321)"/>
<path d="M0 0 C4.3924818 -0.04988404 8.78480824 -0.08594581 13.17749023 -0.10986328 C14.6680794 -0.1198467 16.15864936 -0.13343822 17.64916992 -0.15087891 C39.18228574 -0.39631167 39.18228574 -0.39631167 47 6 C53.91226947 13.23377038 55.97293789 20.18998561 56 30 C55.43448595 38.22454135 52.36914011 44.97450013 46.26171875 50.6015625 C40.21974003 55.18328472 34.26857186 56.30085131 26.7578125 56.1953125 C25.98944061 56.1924826 25.22106873 56.18965271 24.42941284 56.18673706 C21.99444479 56.17561311 19.55985538 56.1505236 17.125 56.125 C15.46615118 56.11496011 13.80729654 56.10583603 12.1484375 56.09765625 C8.09881421 56.07569937 4.04947113 56.04122406 0 56 C0 55.34 0 54.68 0 54 C0.969375 53.731875 1.93875 53.46375 2.9375 53.1875 C4.4534375 52.5996875 4.4534375 52.5996875 6 52 C6.91166194 49.26501419 7.1263302 47.66485393 7.12939453 44.8515625 C7.13412277 43.60511963 7.13412277 43.60511963 7.13894653 42.33349609 C7.1369223 41.43969238 7.13489807 40.54588867 7.1328125 39.625 C7.13376923 38.70412598 7.13472595 37.78325195 7.13571167 36.83447266 C7.1363921 34.88769462 7.13454734 32.9409143 7.13037109 30.99414062 C7.12502093 28.01166699 7.13032071 25.02934395 7.13671875 22.046875 C7.13605794 20.15624967 7.13477673 18.26562443 7.1328125 16.375 C7.13483673 15.48119629 7.13686096 14.58739258 7.13894653 13.66650391 C7.13579437 12.83554199 7.13264221 12.00458008 7.12939453 11.1484375 C7.12859894 10.41802246 7.12780334 9.68760742 7.12698364 8.93505859 C7.06769397 6.78070259 7.06769397 6.78070259 6 4 C2.99152582 2.77479736 2.99152582 2.77479736 0 2 C0 1.34 0 0.68 0 0 Z M16 5 C16 20.51 16 36.02 16 52 C27.47285613 53.22857417 27.47285613 53.22857417 37 49 C40.97551979 45.68230003 43.89946564 41.05904556 45 36 C45.82587211 25.76144853 45.5652253 18.49610094 39.3125 10.25 C35.53465055 6.09902961 31.4079633 4.32840374 25.8515625 3.79296875 C22.34261276 3.72122442 19.41528747 4.14617813 16 5 Z " fill="#0B5FA3" transform="translate(615,321)"/>
<path d="M0 0 C0.33 -0.66 0.66 -1.32 1 -2 C1.99 -2 2.98 -2 4 -2 C4 4.6 4 11.2 4 18 C3.01 18 2.02 18 1 18 C0.84144531 17.32453125 0.68289063 16.6490625 0.51953125 15.953125 C-0.54800381 11.87172023 -1.40605082 8.71623284 -4.125 5.4375 C-8.05831386 3.47084307 -11.59736649 2.67358413 -16 3 C-19.16821233 4.34978302 -19.16821233 4.34978302 -21 7 C-22.00076997 9.9117496 -22.00076997 9.9117496 -21 13 C-16.50289965 17.92539562 -10.91049707 20.92670039 -5.06396484 24.02099609 C0.13342114 26.83246023 3.72895585 30.09343377 7 35 C8.21603418 40.26948145 8.17404414 44.01781552 6 49 C1.49863924 54.16471918 -3.29398931 56.62939893 -10.125 57.3125 C-15.59138342 56.87166263 -20.72477887 55.45523342 -26 54 C-26.33 54.99 -26.66 55.98 -27 57 C-27.66 57 -28.32 57 -29 57 C-29 50.4 -29 43.8 -29 37 C-28.01 37 -27.02 37 -26 37 C-25.82984375 37.60328125 -25.6596875 38.2065625 -25.484375 38.828125 C-23.62643529 45.33458119 -23.62643529 45.33458119 -19 50 C-14.46767169 51.7601275 -10.60633738 52.62102776 -6 50.75 C-2.93695902 49.32995917 -2.93695902 49.32995917 -2 47 C-1.60318496 43.42866467 -1.61283757 41.59592648 -3.59375 38.546875 C-6.35067209 35.62883409 -9.30031452 33.89537075 -12.8125 32.0625 C-19.48488263 28.39488753 -25.05926715 25.27498669 -29 18.625 C-30.18494101 14.32958883 -30.50696766 11.22282147 -29 7 C-21.9324487 -4.05659867 -11.62722057 -3.51010432 0 0 Z " fill="#0B5FA3" transform="translate(802,322)"/>
<path d="M0 0 C1.32 0 2.64 0 4 0 C4.48879639 1.21993652 4.97759277 2.43987305 5.48120117 3.69677734 C7.3127083 8.26457951 9.14980984 12.83011481 10.98852539 17.39501953 C11.78039502 19.36316465 12.57078865 21.33190435 13.35961914 23.30126953 C14.50009647 26.14777399 15.64603704 28.99202852 16.79296875 31.8359375 C17.13901657 32.70302338 17.48506439 33.57010925 17.84159851 34.46347046 C22.04752572 46.69642064 22.04752572 46.69642064 31 55 C31 55.66 31 56.32 31 57 C23.74 57 16.48 57 9 57 C9 56.34 9 55.68 9 55 C11.475 54.505 11.475 54.505 14 54 C13.71125 52.824375 13.4225 51.64875 13.125 50.4375 C12.96257812 49.77621094 12.80015625 49.11492187 12.6328125 48.43359375 C11.81120846 45.27396835 10.89688206 42.1390872 10 39 C3.07 39 -3.86 39 -11 39 C-13.23604961 46.44112614 -13.23604961 46.44112614 -15 54 C-13.02 54.33 -11.04 54.66 -9 55 C-9 55.66 -9 56.32 -9 57 C-14.94 57 -20.88 57 -27 57 C-27 56.34 -27 55.68 -27 55 C-26.22672363 54.56300781 -25.45344727 54.12601562 -24.65673828 53.67578125 C-21.58294712 51.73693706 -20.89233879 50.48896146 -19.4921875 47.1875 C-19.06784424 46.20644287 -18.64350098 45.22538574 -18.20629883 44.21459961 C-17.76697021 43.15378174 -17.3276416 42.09296387 -16.875 41 C-16.17636841 39.36333374 -16.17636841 39.36333374 -15.46362305 37.69360352 C-13.95452686 34.13754795 -12.47336335 30.57100111 -11 27 C-10.61119659 26.05915558 -10.61119659 26.05915558 -10.21453857 25.0993042 C-6.76585927 16.7505545 -3.36342371 8.38348845 0 0 Z M-1 15 C-3.64 21.6 -6.28 28.2 -9 35 C-3.39 35 2.22 35 8 35 C5.83836487 28.06001352 3.1063786 21.56882431 0 15 C-0.33 15 -0.66 15 -1 15 Z " fill="#0B5FA3" transform="translate(338,320)"/>
<path d="M0 0 C1.87231445 0.24839783 1.87231445 0.24839783 4 1 C5.13745117 2.73683167 5.13745117 2.73683167 6.04296875 5.02563477 C6.39012939 5.88065079 6.73729004 6.73566681 7.0949707 7.61659241 C7.63577271 9.01487526 7.63577271 9.01487526 8.1875 10.44140625 C8.76407349 11.87576271 8.76407349 11.87576271 9.35229492 13.33909607 C10.58278771 16.40797319 11.79203717 19.48469336 13 22.5625 C14.21202655 25.61353818 15.42839555 28.66278769 16.64770508 31.71092224 C17.40530569 33.60882413 18.15801747 35.50868734 18.9050293 37.41078186 C22.17267001 47.30046439 22.17267001 47.30046439 28.75 54.5 C29.4925 54.665 30.235 54.83 31 55 C31 55.66 31 56.32 31 57 C23.74 57 16.48 57 9 57 C9 56.34 9 55.68 9 55 C11.475 54.505 11.475 54.505 14 54 C13.71125 53.08476562 13.4225 52.16953125 13.125 51.2265625 C12.75375 50.03804688 12.3825 48.84953125 12 47.625 C11.62875 46.44164062 11.2575 45.25828125 10.875 44.0390625 C10 41 10 41 10 39 C3.07 39 -3.86 39 -11 39 C-13.42614549 45.99360736 -13.42614549 45.99360736 -15 53 C-13.02 53.66 -11.04 54.32 -9 55 C-9 55.66 -9 56.32 -9 57 C-15.27 57 -21.54 57 -28 57 C-28 56.34 -28 55.68 -28 55 C-27.24847656 54.81050781 -26.49695313 54.62101562 -25.72265625 54.42578125 C-22.02519952 52.48952342 -21.01831082 49.86402673 -19.4375 46.1875 C-19.11305908 45.46771973 -18.78861816 44.74793945 -18.4543457 44.00634766 C-13.46845613 32.78952654 -8.88871223 21.3835643 -4.24365234 10.02246094 C-2.86266956 6.66624444 -1.44685339 3.32825661 0 0 Z M-1 15 C-2.33620809 18.14462004 -3.66848288 21.29089113 -5 24.4375 C-5.57234375 25.78424805 -5.57234375 25.78424805 -6.15625 27.15820312 C-6.5171875 28.01220703 -6.878125 28.86621094 -7.25 29.74609375 C-7.75273437 30.93223267 -7.75273437 30.93223267 -8.265625 32.14233398 C-9.06127279 33.82206892 -9.06127279 33.82206892 -9 35 C-3.39 35 2.22 35 8 35 C5.36 28.4 2.72 21.8 0 15 C-0.33 15 -0.66 15 -1 15 Z " fill="#0B5FA3" transform="translate(28,320)"/>
<path d="M0 0 C5.28 0 10.56 0 16 0 C16 1.32 16 2.64 16 4 C12.04 4 8.08 4 4 4 C4 5.65 4 7.3 4 9 C7.63 9 11.26 9 15 9 C15 10.32 15 11.64 15 13 C11.37 13 7.74 13 4 13 C4 14.98 4 16.96 4 19 C7.96 19 11.92 19 16 19 C16 19.99 16 20.98 16 22 C10.72 22 5.44 22 0 22 C0 14.74 0 7.48 0 0 Z " fill="#2B2A29" transform="translate(453,392)"/>
<path d="M0 0 C2.5 1.8125 2.5 1.8125 4 4 C4 4.99 4 5.98 4 7 C2.68 7 1.36 7 0 7 C-0.33 6.34 -0.66 5.68 -1 5 C-2.98 5 -4.96 5 -7 5 C-7 5.66 -7 6.32 -7 7 C-6.30132813 7.21914063 -5.60265625 7.43828125 -4.8828125 7.6640625 C2.53685504 10.24938575 2.53685504 10.24938575 4.8125 13.9375 C5 17 5 17 4.3125 19.875 C0.94912762 22.96566651 -1.97767818 22.51636905 -6.40625 22.46875 C-9 22 -9 22 -10.84375 20.71875 C-12 19 -12 19 -12 15 C-11.01 14.67 -10.02 14.34 -9 14 C-8.34 15.32 -7.68 16.64 -7 18 C-4.69 18 -2.38 18 0 18 C0 17.01 0 16.02 0 15 C-0.69867187 14.74605469 -1.39734375 14.49210937 -2.1171875 14.23046875 C-3.48230469 13.71419922 -3.48230469 13.71419922 -4.875 13.1875 C-5.77992188 12.85105469 -6.68484375 12.51460938 -7.6171875 12.16796875 C-10 11 -10 11 -12 8 C-11.79874167 5.31655567 -11.29749125 3.50748507 -9.9375 1.1875 C-6.79133818 -0.74079273 -3.52502237 -0.65251923 0 0 Z " fill="#2B2A29" transform="translate(523,392)"/>
<path d="M0 0 C2.26171875 -0.08984375 2.26171875 -0.08984375 5 1 C6.73631595 3.97529518 7.74057013 7.17438455 8.8125 10.4375 C9.12380859 11.32244141 9.43511719 12.20738281 9.75585938 13.11914062 C12 19.59508929 12 19.59508929 12 22 C10.68 22 9.36 22 8 22 C7.34 20.02 6.68 18.04 6 16 C3.36 16 0.72 16 -2 16 C-2.33 17.98 -2.66 19.96 -3 22 C-4.32 22 -5.64 22 -7 22 C-5.56006454 14.27670981 -2.94467554 7.2717751 0 0 Z M2 6 C0.5393715 8.64738916 0 9.89448334 0 13 C1.65 13 3.3 13 5 13 C4.34 10.69 3.68 8.38 3 6 C2.67 6 2.34 6 2 6 Z " fill="#2B2A29" transform="translate(236,392)"/>
<path d="M0 0 C0.99 0 1.98 0 3 0 C3 7.26 3 14.52 3 22 C-0.63 22 -4.26 22 -8 22 C-10.14553377 18.78169935 -10.29583868 17.73213493 -10.3125 14 C-10.32925781 13.13375 -10.34601563 12.2675 -10.36328125 11.375 C-10 9 -10 9 -8.6796875 7.19921875 C-6.17533953 5.41123078 -3.9857871 5.80094753 -1 6 C-0.67 4.02 -0.34 2.04 0 0 Z M-5 9 C-7.56687367 12.8503105 -6.83288724 14.58569763 -6 19 C-5.01 19.33 -4.02 19.66 -3 20 C-1.29264699 18.96431405 -1.29264699 18.96431405 0 17 C-0.23477199 13.35458155 -0.23477199 13.35458155 -1 10 C-2.32 9.67 -3.64 9.34 -5 9 Z " fill="#2B2A29" transform="translate(484,392)"/>
<path d="M0 0 C0.70125 0.00515625 1.4025 0.0103125 2.125 0.015625 C2.82625 0.01046875 3.5275 0.0053125 4.25 0 C6.125 0.265625 6.125 0.265625 8.125 2.265625 C8.42559943 4.63071861 8.62015012 7.01004381 8.75 9.390625 C8.82476562 10.67195313 8.89953125 11.95328125 8.9765625 13.2734375 C9.05003906 14.75457031 9.05003906 14.75457031 9.125 16.265625 C6.97923363 16.29248438 4.83337355 16.31195588 2.6875 16.328125 C1.49253906 16.33972656 0.29757812 16.35132813 -0.93359375 16.36328125 C-3.875 16.265625 -3.875 16.265625 -4.875 15.265625 C-5.0625 12.328125 -5.0625 12.328125 -4.875 9.265625 C-1.86882731 6.25945231 0.94881598 6.66977184 5.125 6.265625 C4.795 5.605625 4.465 4.945625 4.125 4.265625 C2.805 4.265625 1.485 4.265625 0.125 4.265625 C-0.205 4.925625 -0.535 5.585625 -0.875 6.265625 C-2.195 6.265625 -3.515 6.265625 -4.875 6.265625 C-4.22256476 3.00344879 -3.71990039 0.52698589 0 0 Z M-1.875 11.265625 C-0.885 12.750625 -0.885 12.750625 0.125 14.265625 C1.445 13.935625 2.765 13.605625 4.125 13.265625 C4.455 11.945625 4.785 10.625625 5.125 9.265625 C2.4784665 9.265625 0.5441837 10.24702134 -1.875 11.265625 Z " fill="#2B2A29" transform="translate(339.875,397.734375)"/>
<path d="M0 0 C2.4375 2.25 2.4375 2.25 4 5 C4 6.32 4 7.64 4 9 C0.37 9 -3.26 9 -7 9 C-6.67 10.32 -6.34 11.64 -6 13 C-5.278125 12.855625 -4.55625 12.71125 -3.8125 12.5625 C-1.9375 12.1875 -0.0625 11.8125 1.8125 11.4375 C2.534375 11.293125 3.25625 11.14875 4 11 C3.0625 13.5 3.0625 13.5 1 16 C-2.12654385 16.75689144 -4.86730087 16.71038902 -8 16 C-10.125 14 -10.125 14 -11 11 C-11.0839404 7.40455287 -10.66793444 4.187439 -8.875 1 C-5.75979585 -0.66144221 -3.44895842 -0.48406434 0 0 Z M-5 3 C-5.99 4.485 -5.99 4.485 -7 6 C-4.69 6 -2.38 6 0 6 C-0.66 5.01 -1.32 4.02 -2 3 C-2.99 3 -3.98 3 -5 3 Z " fill="#2B2A29" transform="translate(400,398)"/>
<path d="M0 0 C3.6875 0.3125 3.6875 0.3125 6.125 1.8125 C8.33859528 5.35425244 8.33755246 8.2455051 7.6875 12.3125 C6.75 14.8125 6.75 14.8125 4.6875 16.3125 C1.64063639 16.74776623 -1.27174292 16.80871463 -4.3125 16.3125 C-6.79401435 13.83098565 -6.98860277 11.7714996 -7.35546875 8.3515625 C-7.25060485 3.37529384 -4.65923835 0.43955079 0 0 Z M-1.3125 3.3125 C-3.87937367 7.1628105 -3.14538724 8.89819763 -2.3125 13.3125 C-0.42070797 13.9939823 -0.42070797 13.9939823 1.6875 14.3125 C4.06744368 12.36917668 4.06744368 12.36917668 3.9375 8.8125 C4.06744368 5.25582332 4.06744368 5.25582332 1.6875 3.3125 C0.6975 3.3125 -0.2925 3.3125 -1.3125 3.3125 Z " fill="#2B2A29" transform="translate(422.3125,397.6875)"/>
<path d="M0 0 C0.99 0 1.98 0 3 0 C3.33 3.3 3.66 6.6 4 10 C4.5775 9.34 5.155 8.68 5.75 8 C8 6 8 6 12 6 C10.79618552 8.49361571 9.54571278 10.68143083 8 13 C9.65 15.97 11.3 18.94 13 22 C11.35 22 9.7 22 8 22 C6.3125 19.5625 6.3125 19.5625 5 17 C4.34 16.67 3.68 16.34 3 16 C3 17.98 3 19.96 3 22 C2.01 22 1.02 22 0 22 C0 14.74 0 7.48 0 0 Z " fill="#2B2A29" transform="translate(533,392)"/>
<path d="M0 0 C3.5625 0.3125 3.5625 0.3125 5.5 1.6875 C6.5625 3.3125 6.5625 3.3125 6.5625 5.3125 C3.9225 4.9825 1.2825 4.6525 -1.4375 4.3125 C1.37612517 6.37827935 1.37612517 6.37827935 4.1875 7.1875 C6.5625 8.3125 6.5625 8.3125 7.5 10.1875 C7.5625 12.3125 7.5625 12.3125 5.5625 16.3125 C2.2625 16.3125 -1.0375 16.3125 -4.4375 16.3125 C-5.0975 14.6625 -5.7575 13.0125 -6.4375 11.3125 C-5.715625 11.456875 -4.99375 11.60125 -4.25 11.75 C-2.8578125 12.0284375 -2.8578125 12.0284375 -1.4375 12.3125 C0.22916667 12.64583333 1.89583333 12.97916667 3.5625 13.3125 C3.5625 12.6525 3.5625 11.9925 3.5625 11.3125 C2.44875 11.02375 1.335 10.735 0.1875 10.4375 C-3.4375 9.3125 -3.4375 9.3125 -5.4375 7.3125 C-5.6875 4.8125 -5.6875 4.8125 -5.4375 2.3125 C-3.4375 0.3125 -3.4375 0.3125 0 0 Z " fill="#2B2A29" transform="translate(581.4375,397.6875)"/>
<path d="M0 0 C0.99 0 1.98 0 3 0 C3.04898437 0.85464844 3.09796875 1.70929688 3.1484375 2.58984375 C3.22320312 3.69457031 3.29796875 4.79929687 3.375 5.9375 C3.44460938 7.03964844 3.51421875 8.14179688 3.5859375 9.27734375 C3.72257812 10.17582031 3.85921875 11.07429688 4 12 C4.66 12.33 5.32 12.66 6 13 C6.66 12.67 7.32 12.34 8 12 C8.46898963 9.1840151 8.46898963 9.1840151 8.625 5.9375 C8.69976562 4.83277344 8.77453125 3.72804688 8.8515625 2.58984375 C8.90054687 1.73519531 8.94953125 0.88054687 9 0 C10.32 0 11.64 0 13 0 C13 5.28 13 10.56 13 16 C3.72265625 16.09765625 3.72265625 16.09765625 1 16 C0 15 0 15 -0.09765625 11.62109375 C-0.09098369 10.22652923 -0.07902532 8.83198257 -0.0625 7.4375 C-0.05798828 6.72658203 -0.05347656 6.01566406 -0.04882812 5.28320312 C-0.03700864 3.52209987 -0.01907263 1.76103964 0 0 Z " fill="#2B2A29" transform="translate(493,398)"/>
<path d="M0 0 C1.60875 -0.020625 3.2175 -0.04125 4.875 -0.0625 C5.77992188 -0.07410156 6.68484375 -0.08570313 7.6171875 -0.09765625 C10 0 10 0 12 1 C13.09506492 4.28519475 13.09960608 6.73663415 13.0625 10.1875 C13.05347656 11.27417969 13.04445313 12.36085938 13.03515625 13.48046875 C13.02355469 14.31191406 13.01195312 15.14335937 13 16 C11.68 16 10.36 16 9 16 C8.67 12.04 8.34 8.08 8 4 C7.01 4 6.02 4 5 4 C3.78306124 6.43387753 3.68040104 8.41838846 3.4375 11.125 C3.31181641 12.49011719 3.31181641 12.49011719 3.18359375 13.8828125 C3.12300781 14.58148438 3.06242188 15.28015625 3 16 C2.01 16 1.02 16 0 16 C0 10.72 0 5.44 0 0 Z " fill="#2B2A29" transform="translate(252,398)"/>
<path d="M0 0 C1.60875 -0.04125 3.2175 -0.0825 4.875 -0.125 C5.77992188 -0.14820313 6.68484375 -0.17140625 7.6171875 -0.1953125 C10 0 10 0 12 2 C12.1953125 5.2578125 12.1953125 5.2578125 12.125 9.125 C12.10695313 10.40632813 12.08890625 11.68765625 12.0703125 13.0078125 C12.04710937 13.99523437 12.02390625 14.98265625 12 16 C11.01 16 10.02 16 9 16 C8.67 12.37 8.34 8.74 8 5 C6.68 5 5.36 5 4 5 C3.67 8.63 3.34 12.26 3 16 C2.01 16 1.02 16 0 16 C0 10.72 0 5.44 0 0 Z " fill="#2B2A29" transform="translate(289,398)"/>
<path d="M0 0 C1.4540625 0.0309375 1.4540625 0.0309375 2.9375 0.0625 C1.78576645 2.53050047 0.88966435 4.11033565 -1.0625 6.0625 C-0.0725 6.0625 0.9175 6.0625 1.9375 6.0625 C1.9375 7.0525 1.9375 8.0425 1.9375 9.0625 C0.9475 9.0625 -0.0425 9.0625 -1.0625 9.0625 C-1.0625 13.3525 -1.0625 17.6425 -1.0625 22.0625 C-2.3825 22.0625 -3.7025 22.0625 -5.0625 22.0625 C-5.0625 17.7725 -5.0625 13.4825 -5.0625 9.0625 C-5.7225 9.0625 -6.3825 9.0625 -7.0625 9.0625 C-7.0625 8.0725 -7.0625 7.0825 -7.0625 6.0625 C-6.4025 6.0625 -5.7425 6.0625 -5.0625 6.0625 C-4.918125 5.258125 -4.77375 4.45375 -4.625 3.625 C-3.8465 0.0785 -3.8465 0.0785 0 0 Z " fill="#2B2A29" transform="translate(440.0625,391.9375)"/>
<path d="M0 0 C1.32 0 2.64 0 4 0 C4.99 2.97 5.98 5.94 7 9 C8.32 6.03 9.64 3.06 11 0 C11.99 0 12.98 0 14 0 C12.90301833 5.69139902 11.45946923 10.74567937 9 16 C7.68 16 6.36 16 5 16 C4.1605118 13.89828133 3.32860344 11.79353375 2.5 9.6875 C2.0359375 8.51574219 1.571875 7.34398437 1.09375 6.13671875 C0 3 0 3 0 0 Z " fill="#2B2A29" transform="translate(372,398)"/>
<path d="M0 0 C0 1.65 0 3.3 0 5 C0.66 5 1.32 5 2 5 C2 5.99 2 6.98 2 8 C1.34 8 0.68 8 0 8 C0 11.3 0 14.6 0 18 C0.66 18 1.32 18 2 18 C2.33 18.99 2.66 19.98 3 21 C1.00045254 21.04254356 -1.00041636 21.04080783 -3 21 C-4 20 -4 20 -4.09765625 17.27734375 C-4.08605469 16.17519531 -4.07445312 15.07304687 -4.0625 13.9375 C-4.05347656 12.83277344 -4.04445313 11.72804688 -4.03515625 10.58984375 C-4.02355469 9.73519531 -4.01195312 8.88054687 -4 8 C-4.66 8 -5.32 8 -6 8 C-6 7.01 -6 6.02 -6 5 C-5.34 5 -4.68 5 -4 5 C-4 3.68 -4 2.36 -4 1 C-2 0 -2 0 0 0 Z " fill="#2B2A29" transform="translate(358,393)"/>
<path d="M0 0 C0 1.65 0 3.3 0 5 C0.66 5 1.32 5 2 5 C2 5.99 2 6.98 2 8 C1.34 8 0.68 8 0 8 C0 11.3 0 14.6 0 18 C0.66 18 1.32 18 2 18 C2.33 18.99 2.66 19.98 3 21 C1.02 21 -0.96 21 -3 21 C-4.44952585 18.1009483 -4.39046033 15.34824524 -4.625 12.125 C-4.72039062 10.89007813 -4.81578125 9.65515625 -4.9140625 8.3828125 C-4.98513397 5.58518109 -5.03291513 3.57606545 -4 1 C-2 0 -2 0 0 0 Z " fill="#2B2A29" transform="translate(320,393)"/>
<path d="M0 0 C1.32 0 2.64 0 4 0 C4 7.26 4 14.52 4 22 C2.68 22 1.36 22 0 22 C0 14.74 0 7.48 0 0 Z " fill="#2B2A29" transform="translate(567,392)"/>
<path d="M0 0 C1.32 0 2.64 0 4 0 C4 7.26 4 14.52 4 22 C2.68 22 1.36 22 0 22 C0 14.74 0 7.48 0 0 Z " fill="#2B2A29" transform="translate(558,392)"/>
<path d="M0 0 C0.99 0 1.98 0 3 0 C3 7.26 3 14.52 3 22 C2.01 22 1.02 22 0 22 C0 14.74 0 7.48 0 0 Z " fill="#2B2A29" transform="translate(279,392)"/>
<path d="M0 0 C1.32 0 2.64 0 4 0 C4 5.28 4 10.56 4 16 C2.68 16 1.36 16 0 16 C0 10.72 0 5.44 0 0 Z " fill="#2B2A29" transform="translate(549,398)"/>
<path d="M0 0 C1.32 0 2.64 0 4 0 C4 5.28 4 10.56 4 16 C2.68 16 1.36 16 0 16 C0 10.72 0 5.44 0 0 Z " fill="#2B2A29" transform="translate(364,398)"/>
<path d="M0 0 C1.32 0 2.64 0 4 0 C4 5.28 4 10.56 4 16 C2.68 16 1.36 16 0 16 C0 10.72 0 5.44 0 0 Z " fill="#2B2A29" transform="translate(326,398)"/>
<path d="M0 0 C0.99 0 1.98 0 3 0 C3 5.28 3 10.56 3 16 C2.01 16 1.02 16 0 16 C0 10.72 0 5.44 0 0 Z " fill="#2B2A29" transform="translate(307,398)"/>
<path d="M0 0 C1.32 0 2.64 0 4 0 C4 1.32 4 2.64 4 4 C2.68 4 1.36 4 0 4 C0 2.68 0 1.36 0 0 Z " fill="#2B2A29" transform="translate(549,392)"/>
<path d="M0 0 C1.32 0 2.64 0 4 0 C4 1.32 4 2.64 4 4 C2.68 4 1.36 4 0 4 C0 2.68 0 1.36 0 0 Z " fill="#2B2A29" transform="translate(364,392)"/>
<path d="M0 0 C1.32 0 2.64 0 4 0 C4 1.32 4 2.64 4 4 C2.68 4 1.36 4 0 4 C0 2.68 0 1.36 0 0 Z " fill="#2B2A29" transform="translate(326,392)"/>
<path d="M0 0 C0.99 0 1.98 0 3 0 C3 1.32 3 2.64 3 4 C2.01 4 1.02 4 0 4 C0 2.68 0 1.36 0 0 Z " fill="#2B2A29" transform="translate(307,392)"/>
</svg>
